<svg width="146" height="170" viewBox="0 0 146 170" fill="none" xmlns="http://www.w3.org/2000/svg">
<path d="M119.4 146C104.096 160.854 83.2204 170 60.208 170C37.1956 170 16.3203 160.854 1.01562 146H119.4ZM128.954 35C139.177 49.031 145.208 66.3112 145.208 85C145.208 104.136 138.884 121.794 128.213 136H58.208V135.977C57.7098 135.991 57.2098 136 56.708 136C28.8176 136 6.20801 113.39 6.20801 85.5C6.20801 57.6096 28.8176 35 56.708 35C57.2098 35 57.7098 35.0079 58.208 35.0225V35H128.954ZM60.208 0C83.733 0 105.026 9.55687 120.416 25H0C15.3901 9.55687 36.683 0 60.208 0Z" fill="black"/>
</svg>
